<svg id="Capa_1" data-name="Capa 1" xmlns="http://www.w3.org/2000/svg" viewBox="0 0 281.51 216.95"><defs><style>.cls-1{fill:#fff;}.cls-2{fill:#fff;}</style></defs><title>LogoHB</title><path class="cls-1" d="M307.78,158.22c-4.39,3.39-8.83,6.74-13.16,10.21-1.45,1.17-2.5.62-3.78-.15q-26.08-15.78-52.22-31.52-34.76-21-69.48-41.95a3.48,3.48,0,0,0-4.21,0q-42,25.38-84,50.61a3.94,3.94,0,0,0-2.07,4q0,68.49,0,137c0,3.84,0,3.84-3.83,3.84-3.36,0-6.73-.12-10.09,0-2.32.12-3-.79-2.88-3s0-4.22,0-6.33q0-60.53,0-121c0-.82.43-2-.34-2.41s-1.55.48-2.25.9C54,161.69,48.38,165,42.86,168.44a2.82,2.82,0,0,1-3.77-.18c-3.65-2.94-7.42-5.75-11.13-8.61-2.28-1.75-2.28-1.85.13-3.31l42.59-25.67q20.49-12.34,41-24.68a4,4,0,0,0,2.18-4c-.08-8.36,0-16.73-.08-25.1,0-2.28.62-3.23,3-3.19,7.12.11,14.24.08,21.36,0,2,0,2.78.66,2.69,2.73-.14,3.28,0,6.57-.06,9.85,0,1.46.34,1.87,1.72,1q11.49-7.06,23-14.06h2.82c.78.52,1.54,1.07,2.34,1.56Q231.35,111.45,292,148c5.22,3.15,10.31,6.52,15.76,9.27Z" transform="translate(-26.27 -73.29)"/><path class="cls-2" d="M194.74,174.13h7.88v49.65h61.27V174.13h7.87V288.07h-7.87V231.91H202.62v56.16h-7.88Z" transform="translate(-26.27 -73.29)"/><path class="cls-2" d="M95.41,174.29H131c19.55,0,30.05,11.56,30.05,28,0,13.51-7.29,22.3-15.75,24.9,7.29,2.28,19.4,10.26,19.4,28.17,0,22.78-15.32,32.88-33.12,32.88H95.41Zm33,49c17.66,0,24.37-7.33,24.37-20.51,0-11.23-7-20.35-21.3-20.35h-28.3v40.86ZM103.14,280.1h28.74c13.42,0,24.65-7.49,24.65-24.26,0-14.48-8.32-24.41-28.88-24.41H103.14Z" transform="translate(-26.27 -73.29)"/></svg>